<?xml version="1.0" encoding="UTF-8" standalone="no"?>
<!-- Created with clker.com Auto tracing tool http://www.clker.com) -->

<svg
   xmlns:dc="http://purl.org/dc/elements/1.1/"
   xmlns:cc="http://creativecommons.org/ns#"
   xmlns:rdf="http://www.w3.org/1999/02/22-rdf-syntax-ns#"
   xmlns:svg="http://www.w3.org/2000/svg"
   xmlns="http://www.w3.org/2000/svg"
   xmlns:sodipodi="http://sodipodi.sourceforge.net/DTD/sodipodi-0.dtd"
   xmlns:inkscape="http://www.inkscape.org/namespaces/inkscape"
   width="1109.000000"
   height="901.000000"
   id="svg2"
   version="1.1"
   inkscape:version="0.48.3.1 r9886"
   sodipodi:docname="twitter-logo-blue.svg">
  <metadata
     id="metadata18">
    <rdf:RDF>
      <cc:Work
         rdf:about="">
        <dc:format>image/svg+xml</dc:format>
        <dc:type
           rdf:resource="http://purl.org/dc/dcmitype/StillImage" />
      </cc:Work>
    </rdf:RDF>
  </metadata>
  <defs
     id="defs16" />
  <sodipodi:namedview
     pagecolor="#ffffff"
     bordercolor="#666666"
     borderopacity="1"
     objecttolerance="10"
     gridtolerance="10"
     guidetolerance="10"
     inkscape:pageopacity="0"
     inkscape:pageshadow="2"
     inkscape:window-width="1920"
     inkscape:window-height="1024"
     id="namedview14"
     showgrid="false"
     inkscape:zoom="0.26193119"
     inkscape:cx="554.5"
     inkscape:cy="450.5"
     inkscape:window-x="0"
     inkscape:window-y="27"
     inkscape:window-maximized="1"
     inkscape:current-layer="svg2" />
  <path
     style="fill:#5da8dc;fill-rule:evenodd;stroke:#5da8dc;stroke-width:0.3449744px;stroke-linecap:butt;stroke-linejoin:miter;stroke-opacity:1"
     d="m 683.17667,139.81468 0,-0.13801 17.93866,0 17.93846,0 13.10927,2.62179 q 13.10928,2.55279 23.80339,6.69283 10.69411,4.13942 20.69875,9.65907 10.00419,5.51967 18.14565,11.2464 8.07246,5.65774 14.48871,12.00473 6.34776,6.4169 19.80186,3.31192 13.45409,-3.10497 28.97792,-8.62456 15.52399,-5.51933 30.70181,-12.41882 15.18073,-6.89921 18.49039,-8.76259 3.24661,-1.93166 3.44998,-2.06969 l 0.14148,-0.20704 0.68895,-0.34506 0.68905,-0.3447 0.68895,-0.34476 0.689,-0.34506 0.14079,-0.20704 0.20366,-0.13802 0.20912,-0.13803 0.13538,-0.20703 0.68985,-0.20704 0.69035,-0.13802 -0.1357,1.03518 -0.2095,1.03452 -0.34515,1.03519 -0.3452,1.0352 -0.34465,0.68943 -0.3445,0.69014 -0.34445,1.03521 q -0.3445,1.03447 -0.689,2.75985 -0.34455,1.72461 -6.55261,13.7985 -6.21054,12.0745 -15.5262,24.49314 -9.31248,12.41952 -16.6956,18.76673 -7.45178,6.41728 -9.86652,8.97004 -2.41491,2.6218 -5.86462,4.82936 l -3.44994,2.2766 -0.6901,0.3452 -0.68952,0.3452 -0.13802,0.20712 -0.20703,0.13808 -0.20703,0.13789 -0.13803,0.20669 -0.6901,0.34459 -0.6901,0.34485 -0.13784,0.20698 -0.20668,0.13808 -0.20698,0.13808 -0.13802,0.20712 -0.13802,0.20712 -0.20703,0.13808 -0.20704,0.13808 -0.13802,0.20712 1.72468,0 1.72526,0 19.31836,-4.14042 q 19.31769,-4.13922 36.91519,-10.00418 17.59199,-5.86468 18.62687,-6.20956 1.03562,-0.34451 2.07052,-0.68928 l 1.03562,-0.3452 0.68973,-0.3452 0.69043,-0.3452 0.6904,-0.34514 0.68976,-0.34487 1.38088,-0.20693 1.38025,-0.13786 0,0.68966 0,0.69034 -0.34525,0.13808 -0.3452,0.20712 -0.14328,0.20712 -0.20137,0.13808 -0.2107,0.13808 -0.13445,0.20669 -0.14385,0.20669 -0.20135,0.13782 -0.21074,0.13796 -0.1345,0.20692 -0.14328,0.20692 -0.20192,0.138 -0.34524,0.6904 -0.34466,0.6904 -0.21052,0.13785 q -0.13458,0.20669 -8.76176,11.72843 -8.62669,11.59184 -9.31668,11.72992 -0.69035,0.20712 -1.92836,2.06948 -1.17434,1.9314 -14.62848,15.3856 -13.45427,13.4542 -26.35547,23.9414 -12.97178,10.55624 -13.1098,25.94186 -0.20703,15.31766 -1.58665,34.6357 -1.38004,19.31916 -5.17461,41.74249 -3.79498,22.42343 -11.72941,50.71091 -7.93444,28.2892 -19.31825,55.19675 -11.38436,26.90753 -23.80333,48.29617 -12.41946,21.38864 -22.76868,36.22327 -10.34923,14.83365 -21.04349,27.94265 -10.69425,13.109 -27.04625,29.5302 -16.42047,16.35203 -17.93854,17.93836 -1.58676,1.51817 -13.52307,11.31568 -11.86702,9.86584 -25.52809,19.73194 -13.59207,9.79793 -24.9765,16.3519 -11.3839,6.55514 -27.45978,14.97236 -16.00687,8.48584 -34.63556,15.73092 -18.62868,7.24464 -39.32725,13.45402 -20.69909,6.20922 -40.01715,9.6595 -19.31854,3.44959 -43.81226,5.86446 l -24.4933,2.41489 0,0.20693 0,0.13796 -22.42294,0 -22.42419,0 0,-0.13796 0,-0.20693 -5.8639,-0.34491 q -5.86435,-0.3452 -9.65983,-0.6904 -3.79409,-0.3452 -28.63268,-3.79445 -24.83858,-3.44959 -38.9818,-6.89987 -14.1446,-3.44944 -42.08698,-13.109 -27.94389,-9.65886 -47.81381,-19.52537 -19.8022,-9.79771 -24.83873,-12.41951 -4.96756,-2.55276 -11.17737,-6.34712 l -6.20909,-3.79488 -0.13799,-0.20712 -0.20704,-0.13808 -0.2071,-0.13808 -0.13799,-0.20712 -0.69017,-0.34472 -0.69013,-0.34466 -0.1378,-0.20691 -0.20668,-0.13792 -0.20692,-0.13793 -0.13798,-0.20694 -0.13808,-0.20712 -0.20702,-0.13808 -0.20702,0 -0.13808,0 0,-0.6904 0,-0.68968 0.6902,0.13779 0.68938,0.20669 3.10487,0.3452 q 3.10498,0.3452 16.90415,1.0356 13.79932,0.6897 29.32313,0 15.52376,-0.6904 31.73785,-3.10508 16.21408,-2.41468 38.29141,-8.27964 22.07903,-5.86496 40.56971,-13.93726 18.42164,-8.14115 26.218,-12.14266 7.72732,-3.93296 23.5962,-14.62707 l 15.86888,-10.69412 0.13808,-0.20686 0.20712,-0.13788 0.20712,-0.13789 0.13808,-0.20706 0.13808,-0.20712 0.20712,-0.13808 0.20703,-0.13808 0.13793,-0.20712 0.68948,-0.20712 0.68984,-0.13808 0.13808,-0.68986 0.20712,-0.6893 0.20712,-0.138 0.13808,-0.20712 -5.51976,-0.3452 q -5.51976,-0.3452 -10.69432,-0.6904 -5.17456,-0.34515 -16.21408,-3.1048 -11.03952,-2.75965 -23.80332,-8.27894 -12.7638,-5.51941 -24.83786,-13.10928 -12.07446,-7.58994 -17.45614,-12.62642 -5.31264,-4.96744 -13.7994,-14.07441 -8.41677,-9.17659 -14.62616,-18.83531 -6.21016,-9.66044 -11.868,-22.28616 l -5.726,-12.55668 -0.34448,-1.0356 -0.34508,-1.03417 -0.20712,-0.69011 -0.13808,-0.6904 1.03476,0.13808 1.03472,0.20712 7.58924,1.03531 q 7.58944,1.03417 23.80332,0.68897 16.21408,-0.34449 22.42424,-1.37908 6.20901,-1.0356 7.58924,-1.38058 l 1.37942,-0.34448 1.72566,-0.34448 1.72428,-0.34514 0.13808,-0.20712 0.20712,-0.13808 0.20712,-0.13808 0.13808,-0.20712 -1.3807,-0.3452 -1.37918,-0.3452 -1.38046,-0.34475 -1.37942,-0.34448 -1.38023,-0.34465 q -1.37965,-0.3452 -4.82993,-1.3808 -3.44901,-1.03419 -18.62876,-7.58924 -15.17848,-6.55423 -24.14809,-12.7638 -8.96875,-6.21016 -17.11031,-13.59228 -8.07252,-7.45116 -17.73166,-19.18108 -9.65997,-11.7282 -17.24926,-27.25242 -7.58929,-15.52445 -11.38447,-29.66774 -3.79413,-14.1446 -4.96757,-28.63315 l -1.24131,-14.48933 0.68959,0.13808 0.6898,0.20712 0.69022,0.3452 0.69028,0.34518 0.68934,0.34448 0.68998,0.34447 10.6943,4.83034 q 10.69428,4.82985 26.56316,8.27894 15.86888,3.44975 18.97396,3.79495 l 3.10508,0.3452 3.10475,0 3.10412,0 -0.13779,-0.20712 -0.20668,-0.13808 -0.20669,-0.13808 -0.13795,-0.20712 -0.13808,-0.20712 -0.20712,-0.13808 -0.20712,-0.13808 -0.13808,-0.20682 -0.6904,-0.34448 -0.68973,-0.3445 -0.13779,-0.20712 -0.20669,-0.13808 -0.20679,-0.13808 -0.13808,-0.20712 -0.6904,-0.3452 -0.6904,-0.3452 -0.13808,-0.20712 q -0.20694,-0.13808 -5.93292,-4.41512 -5.6572,-4.34657 -11.86736,-11.24664 -6.21005,-6.89884 -12.41864,-14.48815 -6.21012,-7.58998 -11.03953,-16.21401 -4.82944,-8.62484 -10.21112,-21.94096 -5.31266,-13.24708 -8.07253,-26.70128 -2.75986,-13.4542 -3.105,-26.5632 -0.3451,-13.109 0.69028,-22.42267 1.03423,-9.31509 4.13919,-21.04374 3.10498,-11.72939 8.96987,-24.83837 l 5.86438,-13.10902 0.34448,-1.03529 0.34496,-1.03436 0.20709,-0.13804 0.13808,-0.20706 0.13805,-0.20705 0.2071,-0.13804 0.20711,0.13804 0.13806,0.20705 0.13808,0.20706 0.20709,0.13804 0.2071,0.13804 0.13797,0.20668 0.13779,0.20669 0.20669,0.13785 0.34449,0.6902 0.34517,0.69019 0.20709,0.13804 0.13806,0.20707 9.31482,10.34919 q 9.31394,10.34914 22.07774,23.1129 12.76423,12.76404 14.1446,13.24704 1.37928,0.55232 3.44997,3.17412 2.06979,2.55276 13.79824,12.21174 11.72967,9.66018 30.70363,22.42398 18.97367,12.7638 42.08688,25.1826 23.11292,12.42012 49.67612,22.42404 26.5632,10.00392 37.25752,13.109 10.69432,3.10508 36.56712,7.93444 25.87363,4.82936 38.98273,6.20981 13.10909,1.37943 17.93878,1.58655 l 4.82969,0.13808 -0.13804,-1.0356 -0.20712,-1.03388 -1.37978,-8.62484 q -1.3801,-8.62484 -1.3801,-24.14852 0,-15.52368 2.41468,-28.63268 2.41468,-13.109 7.2448,-26.5632 4.8297,-13.4542 9.45241,-21.59576 4.69143,-8.07252 12.28067,-18.42159 7.5896,-10.34909 19.66404,-21.38848 12.07372,-11.03934 27.59788,-19.66344 15.52409,-8.62428 28.63316,-13.10928 13.10907,-4.48461 22.07808,-5.86426 8.96967,-1.38017 8.96967,-1.58719 z"
     id="path4"
     inkscape:connector-curvature="0" />
</svg>
